<svg width="32" height="32" viewBox="0 0 32 32" fill="none" xmlns="http://www.w3.org/2000/svg">
<rect width="32" height="32" rx="4" fill="#0D0D0D"/>
<path d="M27.9999 6V26C27.9999 26.5304 27.7892 27.0391 27.4142 27.4142C27.0391 27.7893 26.5304 28 25.9999 28H16.9999C16.7347 28 16.4804 27.8946 16.2928 27.7071C16.1053 27.5196 15.9999 27.2652 15.9999 27C15.9999 26.7348 16.1053 26.4804 16.2928 26.2929C16.4804 26.1054 16.7347 26 16.9999 26H25.9999V6H5.99995V18C5.99995 18.2652 5.89459 18.5196 5.70705 18.7071C5.51952 18.8946 5.26516 19 4.99995 19C4.73473 19 4.48038 18.8946 4.29284 18.7071C4.1053 18.5196 3.99995 18.2652 3.99995 18V6C3.99995 5.46957 4.21066 4.96086 4.58573 4.58579C4.9608 4.21071 5.46951 4 5.99995 4H25.9999C26.5304 4 27.0391 4.21071 27.4142 4.58579C27.7892 4.96086 27.9999 5.46957 27.9999 6ZM15.7074 19.2925C15.6146 19.1995 15.5043 19.1258 15.3829 19.0754C15.2615 19.0251 15.1314 18.9992 14.9999 18.9992C14.8685 18.9992 14.7384 19.0251 14.617 19.0754C14.4956 19.1258 14.3853 19.1995 14.2924 19.2925L7.99995 25.5863L5.70745 23.2925C5.61454 23.1996 5.50424 23.1259 5.38284 23.0756C5.26145 23.0253 5.13134 22.9994 4.99995 22.9994C4.86855 22.9994 4.73844 23.0253 4.61705 23.0756C4.49566 23.1259 4.38536 23.1996 4.29245 23.2925C4.19954 23.3854 4.12584 23.4957 4.07555 23.6171C4.02527 23.7385 3.99939 23.8686 3.99939 24C3.99939 24.1314 4.02527 24.2615 4.07555 24.3829C4.12584 24.5043 4.19954 24.6146 4.29245 24.7075L7.29245 27.7075C7.38532 27.8005 7.49561 27.8742 7.61701 27.9246C7.7384 27.9749 7.86853 28.0008 7.99995 28.0008C8.13136 28.0008 8.26149 27.9749 8.38289 27.9246C8.50428 27.8742 8.61457 27.8005 8.70745 27.7075L15.7074 20.7075C15.8004 20.6146 15.8742 20.5043 15.9245 20.3829C15.9748 20.2615 16.0007 20.1314 16.0007 20C16.0007 19.8686 15.9748 19.7385 15.9245 19.6171C15.8742 19.4957 15.8004 19.3854 15.7074 19.2925Z" fill="#FAFAFA"/>
</svg>
